<svg width="40" height="40" viewBox="0 0 40 40" fill="none" xmlns="http://www.w3.org/2000/svg">
<rect x="0.714286" y="0.714286" width="38.5714" height="38.5714" fill="#050402"/>
<rect x="0.714286" y="0.714286" width="38.5714" height="38.5714" stroke="#BB8C5F" stroke-width="1.42857"/>
<path d="M16.6738 24.0685L16.3335 29.1667C16.8335 29.1667 17.0544 28.938 17.3335 28.6667L19.7358 26.3308L24.7335 30.0232C25.6533 30.5306 26.3171 30.2679 26.5462 29.1692L29.827 13.7087C30.1629 12.362 29.3137 11.7512 28.4338 12.1507L9.16879 19.5792C7.85378 20.1067 7.86144 20.8403 8.92909 21.1672L13.8729 22.7103L25.3184 15.4894C25.8587 15.1618 26.3546 15.3379 25.9476 15.6992L16.6735 24.0683L16.6738 24.0685Z" fill="#BB8C5F"/>
</svg>
