<svg width="276" height="96" viewBox="0 0 276 96" fill="none" xmlns="http://www.w3.org/2000/svg">
<path d="M51.0437 74.8112V73.7701H59.5128V74.8112H55.8289V87.7852H54.7277V74.8112H51.0437ZM65.6106 83.0801L65.971 82.039H72.438L72.7983 83.0801H65.6106ZM69.1745 75.7723L66.4515 82.3994L66.3314 82.6396L64.2291 87.7852H62.9878L69.1745 73.2295L75.3611 87.7852H74.1198L72.0375 82.7197L71.9374 82.4594L69.1745 75.7723ZM79.414 74.8112V73.7701H87.8831V74.8112H84.1992V87.7852H83.098V74.8112H79.414ZM94.0587 74.8112V73.7701H102.528V74.8112H98.8438V87.7852H97.7426V74.8112H94.0587ZM108.862 80.7776C108.862 81.9389 109.109 82.98 109.603 83.901C110.11 84.822 110.797 85.5494 111.665 86.0833C112.546 86.6039 113.547 86.8642 114.668 86.8642C115.789 86.8642 116.784 86.6039 117.651 86.0833C118.532 85.5494 119.22 84.822 119.714 83.901C120.207 82.98 120.454 81.9389 120.454 80.7776C120.454 79.603 120.207 78.5619 119.714 77.6543C119.22 76.7333 118.532 76.0125 117.651 75.492C116.784 74.958 115.789 74.6911 114.668 74.6911C113.547 74.6911 112.546 74.958 111.665 75.492C110.797 76.0125 110.11 76.7333 109.603 77.6543C109.109 78.5619 108.862 79.603 108.862 80.7776ZM107.701 80.7776C107.701 79.7499 107.874 78.8022 108.221 77.9346C108.568 77.0536 109.055 76.2928 109.683 75.6521C110.31 74.9981 111.044 74.4909 111.885 74.1305C112.739 73.7701 113.667 73.5899 114.668 73.5899C115.669 73.5899 116.59 73.7701 117.431 74.1305C118.285 74.4909 119.026 74.9981 119.654 75.6521C120.281 76.2928 120.768 77.0536 121.115 77.9346C121.462 78.8022 121.636 79.7499 121.636 80.7776C121.636 81.8054 121.462 82.7598 121.115 83.6407C120.768 84.5083 120.281 85.2691 119.654 85.9232C119.026 86.5638 118.285 87.0644 117.431 87.4248C116.59 87.7852 115.669 87.9653 114.668 87.9653C113.667 87.9653 112.739 87.7852 111.885 87.4248C111.044 87.0644 110.31 86.5638 109.683 85.9232C109.055 85.2691 108.568 84.5083 108.221 83.6407C107.874 82.7598 107.701 81.8054 107.701 80.7776ZM129.568 80.7776C129.568 81.9389 129.815 82.98 130.309 83.901C130.816 84.822 131.503 85.5494 132.371 86.0833C133.252 86.6039 134.253 86.8642 135.374 86.8642C136.495 86.8642 137.49 86.6039 138.357 86.0833C139.238 85.5494 139.926 84.822 140.419 83.901C140.913 82.98 141.16 81.9389 141.16 80.7776C141.16 79.603 140.913 78.5619 140.419 77.6543C139.926 76.7333 139.238 76.0125 138.357 75.492C137.49 74.958 136.495 74.6911 135.374 74.6911C134.253 74.6911 133.252 74.958 132.371 75.492C131.503 76.0125 130.816 76.7333 130.309 77.6543C129.815 78.5619 129.568 79.603 129.568 80.7776ZM128.407 80.7776C128.407 79.7499 128.58 78.8022 128.927 77.9346C129.274 77.0536 129.761 76.2928 130.389 75.6521C131.016 74.9981 131.75 74.4909 132.591 74.1305C133.445 73.7701 134.373 73.5899 135.374 73.5899C136.375 73.5899 137.296 73.7701 138.137 74.1305C138.991 74.4909 139.732 74.9981 140.359 75.6521C140.987 76.2928 141.474 77.0536 141.821 77.9346C142.168 78.8022 142.341 79.7499 142.341 80.7776C142.341 81.8054 142.168 82.7598 141.821 83.6407C141.474 84.5083 140.987 85.2691 140.359 85.9232C139.732 86.5638 138.991 87.0644 138.137 87.4248C137.296 87.7852 136.375 87.9653 135.374 87.9653C134.373 87.9653 133.445 87.7852 132.591 87.4248C131.75 87.0644 131.016 86.5638 130.389 85.9232C129.761 85.2691 129.274 84.5083 128.927 83.6407C128.58 82.7598 128.407 81.8054 128.407 80.7776ZM161.021 83.7408C161.248 84.3281 161.522 84.862 161.842 85.3425C162.176 85.823 162.583 86.2101 163.063 86.5038C163.544 86.7841 164.118 86.9242 164.785 86.9242C165.693 86.9242 166.4 86.6773 166.908 86.1834C167.428 85.6762 167.688 85.0355 167.688 84.2614C167.688 83.5806 167.535 83.0334 167.228 82.6196C166.921 82.2058 166.52 81.8721 166.027 81.6185C165.546 81.3516 165.039 81.118 164.505 80.9178C164.105 80.771 163.684 80.5974 163.244 80.3972C162.816 80.1837 162.416 79.9301 162.042 79.6364C161.669 79.3294 161.362 78.9623 161.121 78.5352C160.894 78.1081 160.781 77.5942 160.781 76.9936C160.781 76.3262 160.941 75.7389 161.261 75.2317C161.582 74.7111 162.029 74.3107 162.603 74.0304C163.177 73.7367 163.824 73.5899 164.545 73.5899C165.292 73.5899 165.933 73.7301 166.467 74.0104C167.014 74.2907 167.468 74.6444 167.829 75.0715C168.189 75.4986 168.463 75.9391 168.649 76.3929L167.688 76.9335C167.542 76.5731 167.328 76.2194 167.048 75.8724C166.781 75.5253 166.44 75.2383 166.027 75.0114C165.613 74.7712 165.099 74.651 164.485 74.651C163.671 74.651 163.043 74.8646 162.603 75.2917C162.162 75.7055 161.942 76.2261 161.942 76.8534C161.942 77.374 162.069 77.8211 162.323 78.1949C162.576 78.5686 162.957 78.909 163.464 79.216C163.971 79.5096 164.598 79.7899 165.346 80.0569C165.733 80.2037 166.133 80.3839 166.547 80.5974C166.961 80.811 167.335 81.078 167.668 81.3983C168.015 81.7186 168.296 82.1057 168.509 82.5595C168.723 83 168.83 83.5272 168.83 84.1412C168.83 84.7152 168.723 85.2358 168.509 85.7029C168.309 86.1701 168.022 86.5772 167.648 86.9242C167.288 87.2579 166.861 87.5182 166.367 87.7051C165.873 87.8786 165.339 87.9653 164.765 87.9653C163.951 87.9653 163.237 87.7985 162.623 87.4648C162.009 87.1311 161.495 86.684 161.081 86.1234C160.668 85.5628 160.347 84.9555 160.12 84.3014L161.021 83.7408ZM177.007 80.6775V79.6364H186.457V80.6775H177.007ZM185.716 73.7701H186.837V87.7852H185.716V73.7701ZM176.426 73.7701H177.527V87.7852H176.426V73.7701ZM195.576 80.7776C195.576 81.9389 195.823 82.98 196.317 83.901C196.824 84.822 197.512 85.5494 198.379 86.0833C199.26 86.6039 200.261 86.8642 201.382 86.8642C202.504 86.8642 203.498 86.6039 204.366 86.0833C205.247 85.5494 205.934 84.822 206.428 83.901C206.922 82.98 207.169 81.9389 207.169 80.7776C207.169 79.603 206.922 78.5619 206.428 77.6543C205.934 76.7333 205.247 76.0125 204.366 75.492C203.498 74.958 202.504 74.6911 201.382 74.6911C200.261 74.6911 199.26 74.958 198.379 75.492C197.512 76.0125 196.824 76.7333 196.317 77.6543C195.823 78.5619 195.576 79.603 195.576 80.7776ZM194.415 80.7776C194.415 79.7499 194.588 78.8022 194.935 77.9346C195.283 77.0536 195.77 76.2928 196.397 75.6521C197.024 74.9981 197.759 74.4909 198.599 74.1305C199.454 73.7701 200.381 73.5899 201.382 73.5899C202.383 73.5899 203.304 73.7701 204.145 74.1305C205 74.4909 205.74 74.9981 206.368 75.6521C206.995 76.2928 207.482 77.0536 207.829 77.9346C208.176 78.8022 208.35 79.7499 208.35 80.7776C208.35 81.8054 208.176 82.7598 207.829 83.6407C207.482 84.5083 206.995 85.2691 206.368 85.9232C205.74 86.5638 205 87.0644 204.145 87.4248C203.304 87.7852 202.383 87.9653 201.382 87.9653C200.381 87.9653 199.454 87.7852 198.599 87.4248C197.759 87.0644 197.024 86.5638 196.397 85.9232C195.77 85.2691 195.283 84.5083 194.935 83.6407C194.588 82.7598 194.415 81.8054 194.415 80.7776ZM215.922 73.7701H217.023V87.7852H215.922V73.7701ZM216.542 74.8112V73.7701H219.205C220.086 73.7701 220.867 73.9369 221.548 74.2706C222.242 74.6043 222.789 75.0782 223.189 75.6922C223.59 76.3062 223.79 77.047 223.79 77.9146C223.79 78.7688 223.59 79.5096 223.189 80.1369C222.789 80.7643 222.242 81.2448 221.548 81.5785C220.867 81.8988 220.086 82.059 219.205 82.059H216.542V81.0179H219.205C220.233 81.0179 221.067 80.7509 221.708 80.217C222.349 79.6831 222.669 78.9156 222.669 77.9146C222.669 76.9001 222.349 76.1326 221.708 75.6121C221.067 75.0782 220.233 74.8112 219.205 74.8112H216.542Z" fill="#BB8C5F"/>
<path d="M0.871635 55.7744L5 59.9028L9.12836 55.7744L5 51.646L0.871635 55.7744ZM275.128 55.7744L271 51.646L266.872 55.7744L271 59.9028L275.128 55.7744ZM5 56.4895L271 56.4894L271 55.0593L5 55.0594L5 56.4895Z" fill="#BB8C5F"/>
<path d="M41.4535 40.571H41.668C41.8682 40.571 42.0541 40.4852 42.2258 40.3135C42.3974 40.1419 42.5404 39.9417 42.6548 39.7129C42.7978 39.4841 42.8979 39.241 42.9551 38.9835C43.0123 38.6975 43.0409 38.4401 43.0409 38.2113V15.6442L31.9719 41.4719L21.4606 16.9742V38.2113C21.4606 38.4401 21.4892 38.6975 21.5464 38.9835C21.6036 39.241 21.6894 39.4841 21.8038 39.7129C21.9468 39.9417 22.1041 40.1419 22.2758 40.3135C22.4474 40.4852 22.6476 40.571 22.8764 40.571H23.0909V41H18.4145V40.571H18.629C18.8292 40.571 19.0151 40.4852 19.1867 40.3135C19.3583 40.1419 19.5013 39.9417 19.6158 39.7129C19.7302 39.4841 19.816 39.241 19.8732 38.9835C19.9304 38.6975 19.959 38.4401 19.959 38.2113V15.3439C19.959 15.1437 19.9304 14.9148 19.8732 14.6574C19.816 14.4 19.7302 14.1569 19.6158 13.9281C19.5013 13.6992 19.3583 13.5133 19.1867 13.3703C19.0151 13.1987 18.8292 13.1129 18.629 13.1129H18.4145V12.6839H22.7906L32.7441 36.1519L42.6977 12.6839H47.5458V13.1129H47.3312C47.1024 13.1129 46.9022 13.1987 46.7306 13.3703C46.559 13.5133 46.4017 13.6992 46.2587 13.9281C46.1443 14.1569 46.0584 14.4 46.0012 14.6574C45.944 14.9148 45.9154 15.1437 45.9154 15.3439V38.2113C45.9154 38.4401 45.944 38.6975 46.0012 38.9835C46.0584 39.241 46.1443 39.4841 46.2587 39.7129C46.4017 39.9417 46.559 40.1419 46.7306 40.3135C46.9022 40.4852 47.1024 40.571 47.3312 40.571H47.5458V41H41.4535V40.571ZM57.557 40.571H57.7715V41H51.7221V40.571H51.9366C52.1368 40.571 52.3228 40.4852 52.4944 40.3135C52.666 40.1419 52.809 39.9417 52.9234 39.7129C53.0664 39.4841 53.1665 39.241 53.2237 38.9835C53.2809 38.6975 53.3095 38.4401 53.3095 38.2113V15.3439C53.3095 15.1437 53.2809 14.9148 53.2237 14.6574C53.1665 14.4 53.0664 14.1569 52.9234 13.9281C52.809 13.6992 52.666 13.5133 52.4944 13.3703C52.3228 13.1987 52.1368 13.1129 51.9366 13.1129H51.7221V12.6839H59.1873C62.0475 12.6839 64.2499 13.2416 65.7944 14.3571C67.3675 15.4726 68.1541 17.1172 68.1541 19.291C68.1541 20.3778 67.9681 21.336 67.5963 22.1655C67.2531 22.9663 66.7812 23.6671 66.1805 24.2677C65.5799 24.8398 64.8648 25.3117 64.0353 25.6835C63.2345 26.0268 62.3764 26.2842 61.4612 26.4558L64.5502 31.1752C65.2938 32.3192 66.0518 33.449 66.8241 34.5645C67.5963 35.6514 68.3543 36.7812 69.0979 37.9539C69.2981 38.2399 69.5127 38.5402 69.7415 38.8548C69.9989 39.1695 70.2563 39.4555 70.5137 39.7129C70.7998 39.9703 71.0858 40.1848 71.3718 40.3565C71.6864 40.4995 72.001 40.571 72.3157 40.571V41H70.4708C69.3267 41 68.3829 40.7283 67.6392 40.1848C66.9242 39.6128 66.3235 38.9549 65.8373 38.2113C64.5502 36.3235 63.2631 34.4072 61.976 32.4623C60.7175 30.5173 59.459 28.601 58.2005 26.7132C57.8859 26.6846 57.5427 26.656 57.1708 26.6274C56.8276 26.5702 56.4987 26.513 56.1841 26.4558V38.2113C56.1841 38.4401 56.2127 38.6975 56.2699 38.9835C56.3271 39.241 56.4129 39.4841 56.5273 39.7129C56.6703 39.9417 56.8133 40.1419 56.9563 40.3135C57.1279 40.4852 57.3281 40.571 57.557 40.571ZM56.1841 14.1426V25.04H56.3986C56.6274 25.0686 56.9849 25.0972 57.4712 25.1258C57.986 25.1258 58.6152 25.1258 59.3589 25.1258C59.9595 25.1258 60.5888 25.04 61.2466 24.8684C61.9331 24.6682 62.5623 24.3535 63.1344 23.9245C63.735 23.4669 64.2213 22.8805 64.5931 22.1655C64.9935 21.4504 65.1937 20.5495 65.1937 19.4626C65.1937 18.3757 64.9792 17.489 64.5502 16.8026C64.1498 16.1161 63.5777 15.5727 62.8341 15.1723C62.119 14.7718 61.2466 14.5001 60.217 14.3571C59.1873 14.2141 58.0575 14.1426 56.8276 14.1426H56.1841ZM75.1919 39.1552C75.1919 38.5831 75.3778 38.0969 75.7496 37.6965C76.15 37.296 76.6363 37.0958 77.2083 37.0958C77.7804 37.0958 78.2666 37.296 78.667 37.6965C79.0675 38.0969 79.2677 38.5831 79.2677 39.1552C79.2677 39.7272 79.0675 40.2134 78.667 40.6139C78.2666 40.9857 77.7804 41.1716 77.2083 41.1716C76.6363 41.1716 76.15 40.9857 75.7496 40.6139C75.3778 40.2134 75.1919 39.7272 75.1919 39.1552ZM94.6243 40.571H94.8389C95.0391 40.571 95.225 40.4852 95.3966 40.3135C95.5682 40.1419 95.7112 39.9417 95.8256 39.7129C95.9686 39.4841 96.0687 39.241 96.126 38.9835C96.1832 38.6975 96.2118 38.4401 96.2118 38.2113V15.3439C96.2118 15.1437 96.1832 14.9148 96.126 14.6574C96.0687 14.4 95.9829 14.1569 95.8685 13.9281C95.7541 13.6992 95.6111 13.5133 95.4395 13.3703C95.2679 13.1987 95.0677 13.1129 94.8389 13.1129H94.6243V12.6839H102.905C105.164 12.6839 107.195 13.0843 108.997 13.8852C110.799 14.6574 112.315 15.7157 113.545 17.06C114.803 18.3757 115.761 19.8916 116.419 21.6077C117.077 23.3239 117.406 25.1115 117.406 26.9706C117.406 28.7154 117.091 30.4315 116.462 32.119C115.833 33.778 114.889 35.2653 113.63 36.581C112.372 37.8967 110.799 38.9692 108.911 39.7987C107.023 40.5996 104.835 41 102.347 41H94.6243V40.571ZM114.489 27.6142C114.489 25.7837 114.16 24.0532 113.502 22.4229C112.844 20.7926 111.914 19.3768 110.713 18.1755C109.54 16.9456 108.139 15.9731 106.509 15.2581C104.907 14.543 103.162 14.1855 101.274 14.1855H99.0863V39.4984H101.36C102.905 39.4984 104.449 39.2696 105.994 38.8119C107.567 38.3257 108.983 37.5963 110.241 36.6239C111.5 35.6228 112.515 34.3786 113.287 32.8913C114.088 31.404 114.489 29.6449 114.489 27.6142ZM126.94 40.571H127.154V41H121.105V40.571H121.319C121.519 40.571 121.705 40.4852 121.877 40.3135C122.049 40.1419 122.192 39.9417 122.306 39.7129C122.449 39.4841 122.549 39.241 122.606 38.9835C122.663 38.6975 122.692 38.4401 122.692 38.2113V15.3439C122.692 15.1437 122.663 14.9148 122.606 14.6574C122.549 14.4 122.449 14.1569 122.306 13.9281C122.192 13.6992 122.049 13.5133 121.877 13.3703C121.705 13.1987 121.519 13.1129 121.319 13.1129H121.105V12.6839H128.57C131.43 12.6839 133.632 13.2416 135.177 14.3571C136.75 15.4726 137.537 17.1172 137.537 19.291C137.537 20.3778 137.351 21.336 136.979 22.1655C136.636 22.9663 136.164 23.6671 135.563 24.2677C134.962 24.8398 134.247 25.3117 133.418 25.6835C132.617 26.0268 131.759 26.2842 130.844 26.4558L133.933 31.1752C134.676 32.3192 135.434 33.449 136.207 34.5645C136.979 35.6514 137.737 36.7812 138.48 37.9539C138.681 38.2399 138.895 38.5402 139.124 38.8548C139.381 39.1695 139.639 39.4555 139.896 39.7129C140.182 39.9703 140.468 40.1848 140.754 40.3565C141.069 40.4995 141.384 40.571 141.698 40.571V41H139.853C138.709 41 137.765 40.7283 137.022 40.1848C136.307 39.6128 135.706 38.9549 135.22 38.2113C133.933 36.3235 132.646 34.4072 131.359 32.4623C130.1 30.5173 128.842 28.601 127.583 26.7132C127.268 26.6846 126.925 26.656 126.553 26.6274C126.21 26.5702 125.881 26.513 125.567 26.4558V38.2113C125.567 38.4401 125.595 38.6975 125.652 38.9835C125.71 39.241 125.795 39.4841 125.91 39.7129C126.053 39.9417 126.196 40.1419 126.339 40.3135C126.51 40.4852 126.711 40.571 126.94 40.571ZM125.567 14.1426V25.04H125.781C126.01 25.0686 126.367 25.0972 126.854 25.1258C127.369 25.1258 127.998 25.1258 128.741 25.1258C129.342 25.1258 129.971 25.04 130.629 24.8684C131.316 24.6682 131.945 24.3535 132.517 23.9245C133.118 23.4669 133.604 22.8805 133.976 22.1655C134.376 21.4504 134.576 20.5495 134.576 19.4626C134.576 18.3757 134.362 17.489 133.933 16.8026C133.532 16.1161 132.96 15.5727 132.217 15.1723C131.502 14.7718 130.629 14.5001 129.6 14.3571C128.57 14.2141 127.44 14.1426 126.21 14.1426H125.567ZM144.446 12.6839H150.581V13.1129H150.366C150.166 13.1129 149.98 13.1987 149.809 13.3703C149.637 13.5133 149.494 13.6992 149.38 13.9281C149.265 14.1283 149.165 14.3714 149.079 14.6574C149.022 14.9148 148.993 15.1437 148.993 15.3439V38.2113C148.993 38.4401 149.022 38.6975 149.079 38.9835C149.136 39.241 149.222 39.4841 149.337 39.7129C149.48 39.9417 149.623 40.1419 149.766 40.3135C149.937 40.4852 150.138 40.571 150.366 40.571H150.581V41H144.446V40.571H144.66C144.889 40.571 145.089 40.4995 145.261 40.3565C145.432 40.1848 145.575 39.9846 145.69 39.7558C145.833 39.4984 145.933 39.241 145.99 38.9835C146.047 38.6975 146.076 38.4401 146.076 38.2113V15.3439C146.076 15.1437 146.047 14.9148 145.99 14.6574C145.933 14.4 145.833 14.1569 145.69 13.9281C145.575 13.6992 145.432 13.5133 145.261 13.3703C145.089 13.1987 144.889 13.1129 144.66 13.1129H144.446V12.6839ZM172.082 33.4061C172.082 34.8362 171.796 36.0661 171.224 37.0958C170.652 38.0969 169.909 38.912 168.993 39.5413C168.107 40.1705 167.091 40.6282 165.947 40.9142C164.832 41.2002 163.716 41.3432 162.601 41.3432C161.457 41.3432 160.47 41.2288 159.64 41C158.811 40.7712 158.053 40.5567 157.367 40.3565C156.909 40.2134 156.494 40.099 156.122 40.0132C155.751 39.8988 155.379 39.8416 155.007 39.8416V34.9506H155.436C155.436 36.0375 155.708 36.9099 156.251 37.5677C156.823 38.197 157.481 38.6832 158.225 39.0265C158.968 39.3697 159.712 39.5985 160.456 39.7129C161.199 39.7987 161.743 39.8416 162.086 39.8416C163.316 39.8416 164.374 39.67 165.261 39.3268C166.147 38.9549 166.877 38.483 167.449 37.911C168.021 37.3103 168.436 36.6525 168.693 35.9374C168.979 35.2224 169.122 34.493 169.122 33.7494C169.122 32.8055 168.922 32.0189 168.521 31.3897C168.121 30.7318 167.592 30.1598 166.934 29.6735C166.305 29.1873 165.575 28.7726 164.746 28.4294C163.917 28.0861 163.073 27.7429 162.215 27.3997C161.242 27.0278 160.284 26.6417 159.34 26.2413C158.396 25.8409 157.553 25.3546 156.809 24.7826C156.065 24.1819 155.465 23.4812 155.007 22.6803C154.549 21.8509 154.32 20.8355 154.32 19.6342C154.32 18.3757 154.564 17.2888 155.05 16.3735C155.536 15.4297 156.18 14.6574 156.98 14.0568C157.81 13.4561 158.74 13.0128 159.769 12.7268C160.827 12.4122 161.9 12.2548 162.987 12.2548C163.731 12.2548 164.431 12.312 165.089 12.4265C165.747 12.5123 166.376 12.6267 166.977 12.7697C167.463 12.8841 167.935 12.9842 168.393 13.07C168.85 13.1272 169.294 13.1558 169.723 13.1558V17.5748H169.294C169.237 16.0875 168.65 15.0864 167.535 14.5716C166.419 14.0282 164.875 13.7565 162.901 13.7565C161.757 13.7565 160.813 13.9567 160.07 14.3571C159.354 14.7289 158.782 15.2009 158.353 15.7729C157.924 16.3163 157.624 16.917 157.452 17.5748C157.309 18.2041 157.238 18.7618 157.238 19.2481C157.238 20.0489 157.41 20.7354 157.753 21.3074C158.125 21.8795 158.611 22.38 159.211 22.809C159.812 23.2381 160.499 23.6242 161.271 23.9674C162.072 24.3106 162.901 24.6396 163.759 24.9542C164.732 25.326 165.718 25.7265 166.72 26.1555C167.721 26.5845 168.607 27.1137 169.38 27.7429C170.18 28.3722 170.824 29.1444 171.31 30.0597C171.825 30.9749 172.082 32.0904 172.082 33.4061ZM181.66 40.571H181.874V41H175.739V40.571H175.954C176.183 40.571 176.383 40.4852 176.554 40.3135C176.726 40.1419 176.869 39.9417 176.983 39.7129C177.126 39.4841 177.227 39.241 177.284 38.9835C177.341 38.6975 177.37 38.4401 177.37 38.2113V15.3439C177.37 15.1437 177.341 14.9148 177.284 14.6574C177.227 14.4 177.126 14.1569 176.983 13.9281C176.869 13.6992 176.726 13.5133 176.554 13.3703C176.383 13.1987 176.197 13.1129 175.997 13.1129H175.782V12.6839H181.917V13.1129H181.703C181.474 13.1129 181.274 13.1987 181.102 13.3703C180.931 13.5133 180.773 13.6992 180.63 13.9281C180.516 14.1569 180.416 14.4 180.33 14.6574C180.273 14.9148 180.244 15.1437 180.244 15.3439V25.2974L191.142 14.4858C191.313 14.2856 191.399 14.0568 191.399 13.7994C191.399 13.3417 191.227 13.1129 190.884 13.1129H190.67V12.6839H195.904V13.1129H195.689C195.289 13.1129 194.874 13.2559 194.445 13.5419C194.016 13.828 193.587 14.1855 193.158 14.6145L184.148 23.5813L193.63 37.9539C193.659 38.0111 193.787 38.1827 194.016 38.4687C194.245 38.7547 194.517 39.0551 194.831 39.3697C195.174 39.6843 195.546 39.9703 195.947 40.2277C196.376 40.4566 196.805 40.571 197.234 40.571V41H196.204C195.346 41 194.617 40.9571 194.016 40.8713C193.444 40.7569 192.943 40.5853 192.514 40.3565C192.085 40.1276 191.699 39.8416 191.356 39.4984C191.041 39.1552 190.712 38.7261 190.369 38.2113L182.046 25.6406L180.244 27.4855V38.2113C180.244 38.4401 180.273 38.6832 180.33 38.9406C180.416 39.1981 180.516 39.4555 180.63 39.7129C180.745 39.9417 180.888 40.1419 181.059 40.3135C181.231 40.4852 181.431 40.571 181.66 40.571ZM200.04 40.571H200.254C200.483 40.571 200.683 40.4995 200.855 40.3565C201.027 40.1848 201.17 39.9846 201.284 39.7558C201.427 39.527 201.527 39.2839 201.584 39.0265C201.67 38.769 201.713 38.5259 201.713 38.2971V15.3439C201.713 15.1437 201.67 14.9148 201.584 14.6574C201.527 14.4 201.427 14.1569 201.284 13.9281C201.17 13.6992 201.027 13.5133 200.855 13.3703C200.683 13.1987 200.483 13.1129 200.254 13.1129H200.04V12.6839H216.558V16.6739H216.129C216.071 16.016 215.814 15.444 215.356 14.9577C214.899 14.4429 214.184 14.1855 213.211 14.1855H204.588V25.04H211.71C212.367 25.04 212.911 24.8398 213.34 24.4394C213.798 24.0389 214.026 23.567 214.026 23.0235H214.455V28.3865H214.026C214.026 27.8716 213.812 27.4283 213.383 27.0565C212.954 26.6846 212.396 26.4987 211.71 26.4987H204.588V39.4984H213.983C214.527 39.4984 214.999 39.3697 215.399 39.1123C215.8 38.8548 216.129 38.5545 216.386 38.2113C216.672 37.8395 216.872 37.4533 216.987 37.0529C217.13 36.6239 217.201 36.2663 217.201 35.9803H217.63V41H200.04V40.571ZM220.863 40.571H221.078C221.306 40.571 221.507 40.4995 221.678 40.3565C221.85 40.1848 221.993 39.9846 222.107 39.7558C222.25 39.527 222.35 39.2839 222.408 39.0265C222.493 38.769 222.536 38.5259 222.536 38.2971V15.3439C222.536 15.1437 222.493 14.9148 222.408 14.6574C222.35 14.4 222.25 14.1569 222.107 13.9281C221.993 13.6992 221.85 13.5133 221.678 13.3703C221.507 13.1987 221.306 13.1129 221.078 13.1129H220.863V12.6839H227.041V13.1129H226.827C226.598 13.1129 226.398 13.1987 226.226 13.3703C226.054 13.5133 225.911 13.6992 225.797 13.9281C225.683 14.1569 225.582 14.4 225.497 14.6574C225.439 14.9148 225.411 15.1437 225.411 15.3439V39.4126H234.807C235.35 39.4126 235.822 39.2839 236.222 39.0265C236.623 38.769 236.952 38.4544 237.209 38.0826C237.495 37.6822 237.695 37.2674 237.81 36.8384C237.953 36.3808 238.024 35.966 238.024 35.5942H238.453V41H220.863V40.571ZM240.806 40.571H241.021C241.25 40.571 241.45 40.4995 241.622 40.3565C241.793 40.1848 241.936 39.9846 242.051 39.7558C242.194 39.527 242.294 39.2839 242.351 39.0265C242.437 38.769 242.48 38.5259 242.48 38.2971V15.3439C242.48 15.1437 242.437 14.9148 242.351 14.6574C242.294 14.4 242.194 14.1569 242.051 13.9281C241.936 13.6992 241.793 13.5133 241.622 13.3703C241.45 13.1987 241.25 13.1129 241.021 13.1129H240.806V12.6839H246.984V13.1129H246.77C246.541 13.1129 246.341 13.1987 246.169 13.3703C245.998 13.5133 245.855 13.6992 245.74 13.9281C245.626 14.1569 245.526 14.4 245.44 14.6574C245.383 14.9148 245.354 15.1437 245.354 15.3439V39.4126H254.75C255.293 39.4126 255.765 39.2839 256.166 39.0265C256.566 38.769 256.895 38.4544 257.152 38.0826C257.438 37.6822 257.639 37.2674 257.753 36.8384C257.896 36.3808 257.968 35.966 257.968 35.5942H258.397V41H240.806V40.571Z" fill="#BB8C5F"/>
</svg>
