<svg width="280" height="80" viewBox="0 0 280 80" fill="none" xmlns="http://www.w3.org/2000/svg">
<mask maskUnits="userSpaceOnUse" x="0" y="0" width="0" height="0" fill="black">
<rect fill="white" width="0" height="0"/>
</mask>
<path d="M92 5.5L94.3868 0.5L88.6132 0.5L91 5.5L92 5.5ZM91 74.5L88.6132 79.5L94.3867 79.5L92 74.5L91 74.5ZM91 5L91 75L92 75L92 5L91 5Z" fill="#D0D0D0" mask="url(#)"/>
<mask maskUnits="userSpaceOnUse" x="0" y="0" width="0" height="0" fill="black">
<rect fill="white" width="0" height="0"/>
</mask>
<path d="M190 5.5L192.387 0.5L186.613 0.5L189 5.5L190 5.5ZM189 74.5L186.613 79.5L192.387 79.5L190 74.5L189 74.5ZM189 5L189 75L190 75L190 5L189 5Z" fill="#D0D0D0" mask="url(#)"/>
<mask maskUnits="userSpaceOnUse" x="0" y="0" width="0" height="0" fill="black">
<rect fill="white" width="0" height="0"/>
</mask>
<path d="M274.5 41.0908L279.5 43.4776V37.7041L274.5 40.0908V41.0908ZM5.5 40.0908L0.5 37.7041V43.4776L5.5 41.0908V40.0908ZM275 40.0908L5 40.0908V41.0908L275 41.0908V40.0908Z" fill="#D0D0D0" mask="url(#)"/>
</svg>
